<?xml version="1.0" encoding="utf-8"?>
<!-- Generator: Adobe Illustrator 24.3.0, SVG Export Plug-In . SVG Version: 6.00 Build 0)  -->
<svg version="1.1" id="Layer_1" xmlns="http://www.w3.org/2000/svg" xmlns:xlink="http://www.w3.org/1999/xlink" x="0px" y="0px"
	 viewBox="0 0 512 512" style="enable-background:new 0 0 512 512;" xml:space="preserve">
<g id="XMLID_1_">
	<path id="XMLID_3_" d="M249.43,267.22c-0.42,1.12-3.09,6.03-9.4,6.03c-7.43,0-10.24-6.17-10.24-10.66c0-7.57,5.05-14.3,12.48-14.3
		c7.99,0,9.96,6.03,10.1,7.01h11.78c0.7-4.49-2.8-17.95-21.46-17.95c-13.74,0-24.68,10.94-24.68,25.52
		c0,11.92,7.43,21.18,21.32,21.18c17.25,0,21.88-13.6,22.44-16.83L249.43,267.22L249.43,267.22z"/>
	<path id="XMLID_4_" d="M158.7,270.44c0-0.7,0.14-1.96,0.84-4.77c0.56-2.8,8.98-41.23,8.98-41.23h-11.08l-9.26,42.49
		c-0.42,1.82-0.56,3.51-0.56,5.05c0,9.26,7.15,12.06,12.9,12.06c2.1,0,3.93-0.28,4.49-0.42c0.14-0.98,1.96-8.98,1.96-9.26
		c-0.28,0-1.54,0.14-2.94,0.14C159.96,274.51,158.7,272.83,158.7,270.44z"/>
	<polygon id="XMLID_5_" points="300.76,237.49 280.84,255.44 287.57,224.45 276.35,224.45 263.73,283.21 274.95,283.21 
		278.04,268.9 284.91,263.43 294.3,283.21 306.79,283.21 293.32,256.7 316.32,237.49 	"/>
	<path id="XMLID_9_" d="M97.69,264.98c0.98-4.21,8.83-40.53,8.83-40.53s13.6,0,21.18,0c15.29,0,19.07,8.55,19.07,13.74
		c0,11.5-10.8,14.44-12.2,14.86c1.26,0.42,8.27,3.23,8.27,12.2c0,9.82-8.98,17.95-23,17.95c0,0-5.05,0-6.31,0
		C101.76,283.21,95.45,275.07,97.69,264.98z M130.79,264.27c0-2.8-1.82-6.31-9.68-6.31h-10.24l-3.09,14.16h11.64
		C126.86,272.27,130.79,268.9,130.79,264.27z M134.58,240.57c0-2.8-2.24-5.33-7.43-5.33h-11.36l-2.52,11.92h11.78
		C131.35,247.17,134.58,244.08,134.58,240.57z"/>
	<path id="XMLID_13_" d="M311.13,264.98c0.98-4.21,8.83-40.53,8.83-40.53s13.6,0,21.18,0c15.29,0,19.07,8.55,19.07,13.74
		c0,11.5-10.8,14.44-12.2,14.86c1.26,0.42,8.27,3.23,8.27,12.2c0,9.82-8.98,17.95-23,17.95c0,0-5.05,0-6.31,0
		C315.2,283.21,308.89,275.07,311.13,264.98z M344.23,264.27c0-2.8-1.82-6.31-9.68-6.31h-10.24l-3.09,14.16h11.64
		C340.44,272.27,344.23,268.9,344.23,264.27z M348.01,240.57c0-2.8-2.1-5.33-7.57-5.33h-11.36l-2.52,11.92h11.78
		C344.79,247.17,348.01,244.08,348.01,240.57z"/>
	<path id="XMLID_14_" d="M436.92,237.49c-11.78,0-19.91,7.01-22.58,20.19c-1.12,5.61-5.47,25.52-5.47,25.52h11.08
		c0,0,4.07-18.93,5.33-24.82c1.68-7.85,5.75-10.38,11.36-10.38c1.82,0,2.94,0.14,3.51,0.28c0.28-1.54,1.82-8.55,2.24-10.38
		C441.27,237.77,439.31,237.49,436.92,237.49z"/>
	<path id="XMLID_15_" d="M474.79,300.74l37.16-63.11h-11.92l-17.11,29.59l-3.93-29.73c0,0-6.03,0-12.76,0
		c-14.72,0-22.3,6.73-24.96,19.49c-1.4,6.45-5.61,26.22-5.61,26.22h11.08c0,0,4.07-18.79,5.75-26.36c1.54-7.29,7.01-9.54,12.9-8.27
		l2.38-10.8c1.68,10.24,7.01,42.91,7.01,42.91l-11.64,19.91L474.79,300.74L474.79,300.74z"/>
	<path id="XMLID_18_" d="M190.67,263.71c2.38-0.42,9.54-1.4,10.52-1.54c-0.14,0.7-0.42,1.96-0.7,2.94
		c-1.26,5.47-6.87,9.12-13.18,9.12c-3.93,0-6.31-2.1-6.31-4.63C181.13,267.36,183.1,264.83,190.67,263.71z M186.46,251.79
		c0.28-0.42,3.09-4.91,10.24-4.91c4.49,0,6.73,1.68,6.73,3.51c0,2.8-4.49,3.51-12.2,4.63c-13.32,1.96-21.6,6.03-21.6,15.57
		c0,6.73,5.61,13.46,15.71,13.46c8.27,0,12.62-5.05,13.04-5.47c0,1.26,0.14,2.94,0.28,4.49c0.98,0,8.55,0,11.5,0
		c-0.42-1.96-1.26-5.75,0.14-11.92c0.7-3.23,2.8-12.48,3.79-17.53c1.96-9.68-3.37-16.41-16.83-16.41
		c-17.39,0-22.44,12.48-23.14,14.44L186.46,251.79L186.46,251.79z"/>
	<path id="XMLID_21_" d="M392.61,269.46c-0.42,0.84-3.09,4.63-9.12,4.63c-8.69,0-10.66-7.43-10.52-9.4c4.63,0,31.41,0,33.8,0
		c0.14-0.84,0.98-3.79,0.98-6.87c0-10.66-7.29-20.47-21.88-20.47c-13.32,0-24.12,11.22-24.12,24.68c0,12.9,7.71,22.16,21.46,22.16
		c16.97,0,21.6-13.32,22.02-14.58C402.29,269.46,392.61,269.46,392.61,269.46z M386.02,247.45c7.43,0,10.38,4.63,9.96,8.27
		c-4.35,0-17.11,0-21.32,0C375.22,253.34,378.73,247.45,386.02,247.45z"/>
	<path id="XMLID_22_" d="M27.44,217.72c0-2.8-1.68-6.45-8.98-6.45c-2.94,0-11.22,0-11.22,0l-3.23,14.72c0,0,6.03,0,11.64,0
		C24.77,225.99,27.44,221.64,27.44,217.72z"/>
	<path id="XMLID_23_" d="M57.45,217.72c0-2.8-1.68-6.45-8.98-6.45c-2.94,0-11.22,0-11.22,0l-3.23,14.72c0,0,6.03,0,11.64,0
		C54.92,225.99,57.45,221.64,57.45,217.72z"/>
	<path id="XMLID_24_" d="M23.37,239.87c0-2.8-1.68-6.45-8.98-6.45c-2.94,0-11.22,0-11.22,0l-3.23,14.72c0,0,6.03,0,11.64,0
		C20.85,248.15,23.37,243.8,23.37,239.87z"/>
	<path id="XMLID_25_" d="M53.52,239.87c0-2.8-1.68-6.45-8.98-6.45c-2.94,0-11.22,0-11.22,0l-3.23,14.72c0,0,6.03,0,11.64,0
		C50.86,248.15,53.52,243.8,53.52,239.87z"/>
	<path id="XMLID_26_" d="M84.93,230.9c0-2.8-1.68-6.45-8.98-6.45c-2.94,0-11.22,0-11.22,0l-3.23,14.72c0,0,6.03,0,11.64,0
		C82.41,239.17,84.93,234.82,84.93,230.9z"/>
	<path id="XMLID_27_" d="M80.59,253.9c0-2.8-1.68-6.45-8.98-6.45c-2.94,0-11.22,0-11.22,0l-3.23,14.72c0,0,6.03,0,11.64,0
		C78.06,262.17,80.59,257.82,80.59,253.9z"/>
	<path id="XMLID_28_" d="M49.17,262.87c0-2.8-1.68-6.45-8.98-6.45c-2.94,0-11.22,0-11.22,0l-3.23,14.72c0,0,6.03,0,11.64,0
		C46.51,271.15,49.17,266.8,49.17,262.87z"/>
</g>
</svg>
